<svg xmlns="http://www.w3.org/2000/svg" viewBox="0 0 512 512" width="80" height="80">
    <circle fill="#FFD630" cx="256" cy="256" r="256"/>
    <path fill="#F5BE18" d="M511.47 241.525L392.081 121.925 121.395 391.766l119.812 119.812c4.86 0.211 9.931 0.423 14.792 0.423
        c141.366 0 255.894-114.529 255.894-255.894c0-4.86-0.211-9.72-0.423-14.369V241.525z"/>
    <path fill="#E84F4F" d="M129.002 117.488h254.204c6.302 0 11.41 5.109 11.41 11.41v254.204c0 6.302-5.109 11.41-11.41 11.41
        H129.002c-6.302 0-11.41-5.109-11.41-11.41V128.898C117.591 122.596 122.7 117.488 129.002 117.488z"/>
    <rect x="124.563" y="158.272" fill="#EFEFF0" width="262.863" height="229.057"/>
    <g fill="#FFFFFF">
        <rect x="213.313" y="130.589" width="155.312" height="11.198"/>
        <path d="M144.004 128.053c4.438 0 8.241 3.593 8.241 8.241c0 4.438-3.593 8.241-8.241 8.241
            c-4.438 0-8.241-3.593-8.241-8.241C135.764 131.857 139.356 128.053 144.004 128.053z"/>
    </g>
    <rect x="141.897" y="177.076" fill="#00CC96" width="228.426" height="67.404"/>
    <rect x="296.778" y="265.194" fill="#E84F4F" width="73.325" height="58.112"/>
    <rect x="141.892" y="265.192" fill="#898989" width="136.928" height="10.565"/>
    <rect x="141.892" y="348.448" fill="#898989" width="136.928" height="10.565"/>
    <rect x="141.892" y="327.528" fill="#898989" width="136.928" height="10.565"/>
    <rect x="141.892" y="306.608" fill="#898989" width="136.928" height="10.565"/>
    <rect x="141.892" y="285.689" fill="#898989" width="136.928" height="10.565"/>
</svg>
